<?xml version="1.0" standalone="no"?>
<!DOCTYPE svg PUBLIC "-//W3C//DTD SVG 20010904//EN"
 "http://www.w3.org/TR/2001/REC-SVG-20010904/DTD/svg10.dtd">
<svg version="1.0" xmlns="http://www.w3.org/2000/svg"
 width="256.000000pt" height="256.000000pt" viewBox="0 0 256.000000 256.000000"
 preserveAspectRatio="xMidYMid meet">
<metadata>
Created by potrace 1.11, written by Peter Selinger 2001-2013
</metadata>
<g transform="translate(0.000000,256.000000) scale(0.100000,-0.100000)"
fill="#000000" stroke="none">
<path d="M117 2494 c-20 -20 35 -24 331 -24 262 0 340 -3 387 -15 260 -68 431
-335 385 -603 -27 -161 -136 -309 -282 -382 -44 -22 -88 -40 -97 -40 -14 0
-121 143 -121 161 0 4 21 9 48 13 101 13 212 108 253 215 30 79 24 204 -13
276 -32 62 -112 138 -175 168 -47 21 -59 22 -383 22 l-335 0 0 -759 c0 -599 3
-760 13 -764 9 -3 12 152 12 752 l0 756 90 0 90 0 0 -756 c0 -600 3 -755 12
-752 10 4 14 166 16 757 l2 753 208 -4 c198 -3 209 -4 263 -30 76 -35 133 -88
166 -156 24 -49 28 -69 28 -142 0 -73 -4 -92 -28 -138 -54 -103 -146 -167
-258 -180 l-59 -7 291 -415 c160 -228 297 -422 305 -431 11 -13 14 -72 14
-333 0 -200 4 -324 10 -337 7 -12 21 -19 38 -19 61 0 57 -49 62 759 l5 740
277 -427 c700 -1077 693 -1067 722 -1070 59 -7 56 -55 56 862 0 642 -3 845
-12 854 -16 16 -63 15 -77 -1 -8 -10 -12 -226 -13 -750 l-3 -736 -480 737
c-264 405 -488 745 -497 754 -22 22 -38 23 -64 4 -18 -14 -19 -34 -24 -516
l-5 -502 -210 301 c-116 166 -211 305 -213 309 -1 4 24 17 55 30 114 44 226
148 284 264 137 271 26 610 -242 742 -120 59 -173 66 -520 66 -168 0 -309 -3
-312 -6z"/>
<path d="M576 1401 c-9 -14 -23 7 223 -339 186 -262 248 -340 228 -289 -4 11
-422 613 -437 630 -4 5 -11 4 -14 -2z"/>
</g>
</svg>
