<?xml version="1.0" standalone="no"?>
<!DOCTYPE svg PUBLIC "-//W3C//DTD SVG 20010904//EN"
 "http://www.w3.org/TR/2001/REC-SVG-20010904/DTD/svg10.dtd">
<svg version="1.0" xmlns="http://www.w3.org/2000/svg"
 width="192.000000pt" height="192.000000pt" viewBox="0 0 192.000000 192.000000"
 preserveAspectRatio="xMidYMid meet">
<metadata>
Created by potrace 1.11, written by Peter Selinger 2001-2013
</metadata>
<g transform="translate(0.000000,192.000000) scale(0.100000,-0.100000)"
fill="#000000" stroke="none">
<path d="M217 1704 c-4 -4 -7 -253 -7 -554 0 -569 0 -570 42 -570 33 0 38 34
38 284 l0 246 108 0 107 0 127 -248 c70 -136 133 -255 141 -266 19 -26 57 -13
57 19 0 13 -54 128 -120 254 -66 127 -120 234 -120 239 0 5 24 16 54 25 75 24
129 66 157 124 21 42 24 62 24 158 0 122 -12 161 -69 217 -64 65 -99 73 -326
76 -113 2 -209 0 -213 -4z m394 -74 c90 -25 141 -92 147 -195 5 -80 -12 -138
-54 -185 -52 -58 -100 -70 -271 -70 l-143 0 0 230 0 230 143 0 c78 0 158 -5
178 -10z"/>
<path d="M1057 1703 c-4 -3 -7 -253 -7 -553 0 -588 -1 -581 50 -565 20 6 20
12 20 471 0 278 4 464 9 464 5 0 11 -6 13 -12 6 -26 449 -887 466 -908 13 -17
24 -21 40 -16 l22 7 -2 557 -3 557 -30 0 -30 0 -5 -469 -5 -469 -229 454
c-126 250 -236 462 -244 472 -15 17 -53 23 -65 10z"/>
<path d="M160 385 l0 -125 788 2 787 3 3 123 3 122 -791 0 -790 0 0 -125z
m184 56 c4 -5 -3 -7 -13 -4 -17 4 -20 -1 -24 -38 l-4 -44 -1 48 c-2 40 1 47
17 47 11 0 22 -4 25 -9z m59 2 c-19 -4 -23 -11 -23 -43 0 -32 4 -39 23 -43 19
-4 18 -4 -5 -6 -27 -1 -28 1 -28 49 0 48 1 50 28 49 23 -2 24 -2 5 -6z m141 0
c-17 -3 -21 -11 -21 -43 0 -32 4 -40 21 -44 16 -3 15 -4 -4 -3 -21 2 -26 8
-28 35 -5 46 3 62 30 61 22 -2 22 -2 2 -6z m87 -10 c13 -15 12 -15 -8 -2 -12
7 -25 10 -29 7 -11 -11 5 -41 19 -35 7 3 13 -5 13 -20 l2 -25 -16 23 -16 23
-7 -24 c-5 -19 -7 -13 -8 23 -1 40 2 47 18 47 10 0 25 -7 32 -17z m-160 -37
c1 -6 5 3 9 19 7 27 8 26 8 -15 1 -42 0 -43 -13 -25 -8 11 -19 25 -25 32 -5 7
-10 18 -10 25 1 15 29 -19 31 -36z m304 -1 c0 -36 -2 -40 -25 -40 -20 0 -26 6
-28 28 -5 42 5 59 30 55 20 -3 23 -9 23 -43z m58 38 c-24 -4 -33 -33 -11 -33
9 0 9 -3 0 -12 -18 -18 -15 -26 11 -31 19 -4 18 -4 -5 -6 -27 -1 -28 1 -28 44
0 43 1 45 28 44 23 -2 24 -2 5 -6z m70 0 c-28 -5 -29 -19 -3 -33 23 -12 26
-33 7 -48 -8 -7 -18 -7 -27 -2 -12 8 -10 10 8 10 27 0 29 16 2 30 -11 6 -20
20 -20 30 0 15 6 20 28 19 23 -2 24 -2 5 -6z m70 0 c-24 -5 -32 -32 -10 -34
10 0 10 -2 0 -6 -21 -8 -15 -31 10 -36 19 -4 18 -4 -5 -6 -27 -1 -28 1 -28 44
0 43 1 45 28 44 23 -2 24 -2 5 -6z m67 -36 c0 -4 -4 -6 -9 -2 -5 3 -12 -7 -14
-22 -2 -16 -5 -6 -5 22 -1 46 0 48 13 31 8 -11 15 -24 15 -29z m30 -2 c0 -42
-12 -60 -23 -32 -7 18 4 77 14 77 5 0 9 -20 9 -45z m56 15 c15 43 18 16 3 -29
-14 -41 -23 -39 -37 8 -16 53 -14 63 5 21 l16 -35 13 35z m89 9 c12 -36 -3
-69 -30 -69 -22 0 -25 4 -25 38 0 21 3 42 7 45 14 14 42 6 48 -14z m35 -18 c0
-29 5 -41 18 -44 10 -3 6 -5 -10 -6 -27 -1 -28 1 -28 44 0 25 5 45 10 45 6 0
10 -18 10 -39z m54 7 l14 -33 7 33 c4 17 12 32 17 32 9 0 5 -18 -13 -67 -13
-36 -20 -29 -43 45 -11 34 2 26 18 -10z m99 25 c-24 -5 -32 -32 -10 -34 10 0
10 -2 0 -6 -21 -8 -15 -31 10 -36 16 -3 13 -5 -10 -6 -33 -1 -33 0 -33 44 0
44 0 45 33 44 23 -1 26 -3 10 -6z m82 -38 c0 -36 -3 -40 -27 -43 -27 -3 -28
-2 -28 43 0 45 1 46 28 43 24 -3 27 -7 27 -43z m75 0 c0 -41 -2 -45 -25 -45
-23 0 -25 4 -25 45 0 41 2 45 25 45 23 0 25 -4 25 -45z m76 -4 l0 -44 -18 23
c-18 22 -18 22 -18 1 0 -12 -4 -21 -10 -21 -5 0 -10 21 -10 46 0 44 1 45 28
42 25 -3 27 -7 28 -47z m-1290 -7 c2 -23 1 -24 -11 -7 -7 10 -11 21 -9 25 10
16 19 7 20 -18z"/>
<path d="M740 396 c0 -26 4 -36 16 -36 11 0 14 8 12 32 -4 46 -28 49 -28 4z"/>
<path d="M1170 395 c0 -24 5 -35 15 -35 10 0 15 11 15 35 0 24 -5 35 -15 35
-10 0 -15 -11 -15 -35z"/>
<path d="M1447 423 c-14 -13 -7 -63 8 -63 10 0 15 11 15 35 0 33 -8 43 -23 28z"/>
<path d="M1520 395 c0 -24 5 -35 15 -35 10 0 15 11 15 35 0 24 -5 35 -15 35
-10 0 -15 -11 -15 -35z"/>
<path d="M1600 415 c0 -9 5 -15 11 -13 6 2 11 8 11 13 0 5 -5 11 -11 13 -6 2
-11 -4 -11 -13z"/>
<path d="M1080 183 c0 -25 3 -44 6 -40 3 3 6 21 6 41 0 24 5 36 17 39 11 3 9
5 -6 6 -21 1 -23 -4 -23 -46z"/>
<path d="M1147 223 c-11 -10 -8 -83 3 -83 6 0 10 7 10 15 0 19 10 19 24 -1 10
-13 12 -9 13 23 1 36 -9 53 -33 53 -6 0 -14 -3 -17 -7z m38 -23 c0 -7 -6 -15
-12 -17 -8 -3 -13 4 -13 17 0 13 5 20 13 18 6 -3 12 -11 12 -18z"/>
<path d="M1232 221 c-8 -5 -12 -22 -10 -42 2 -26 8 -35 25 -37 27 -4 41 35 23
67 -12 23 -18 25 -38 12z m28 -42 c0 -19 -5 -29 -15 -29 -15 0 -22 50 -9 63
12 12 24 -4 24 -34z"/>
<path d="M1388 217 c6 -6 12 -28 15 -47 4 -34 4 -34 5 7 1 23 8 44 15 46 6 3
-1 6 -17 6 -22 1 -26 -2 -18 -12z"/>
<path d="M1500 185 c0 -43 1 -45 28 -44 21 1 23 3 6 6 -29 6 -28 62 1 74 17 6
16 8 -7 8 -27 1 -28 -1 -28 -44z"/>
<path d="M1657 223 c-4 -3 -7 -24 -7 -45 0 -37 2 -39 28 -36 21 2 28 9 30 31
5 41 -28 73 -51 50z m38 -38 c0 -16 -6 -30 -12 -32 -9 -3 -13 7 -13 32 0 25 4
35 13 33 6 -3 12 -17 12 -33z"/>
<path d="M1301 178 c2 -31 3 -35 6 -15 2 15 9 25 14 22 11 -7 11 -3 3 19 -12
30 -24 16 -23 -26z"/>
<path d="M1337 193 c-6 -30 1 -53 14 -53 5 0 9 18 9 40 0 45 -15 54 -23 13z"/>
<path d="M1571 178 c1 -24 4 -33 6 -20 5 27 20 29 28 2 11 -35 25 -22 24 23
-1 34 -2 37 -8 17 l-7 -25 -12 23 c-20 35 -32 26 -31 -20z"/>
</g>
</svg>
