<?xml version="1.0" standalone="no"?>
<!DOCTYPE svg PUBLIC "-//W3C//DTD SVG 20010904//EN"
 "http://www.w3.org/TR/2001/REC-SVG-20010904/DTD/svg10.dtd">
<svg version="1.0" xmlns="http://www.w3.org/2000/svg"
 width="16.000000pt" height="16.000000pt" viewBox="0 0 16.000000 16.000000"
 preserveAspectRatio="xMidYMid meet">
<metadata>
Created by potrace 1.11, written by Peter Selinger 2001-2013
</metadata>
<g transform="translate(0.000000,16.000000) scale(0.004324,-0.004324)"
fill="#000000" stroke="none">
<path d="M160 3596 c0 -12 65 -15 478 -18 453 -4 481 -5 557 -26 318 -87 538
-342 576 -667 17 -149 -24 -340 -102 -472 -50 -83 -171 -207 -255 -259 -69
-43 -200 -97 -214 -89 -12 8 -160 224 -160 234 0 6 13 11 28 11 16 0 53 7 83
16 167 49 303 194 344 365 63 269 -107 541 -378 604 -55 13 -140 15 -509 13
l-443 -3 -3 -1102 c-2 -1098 -2 -1103 18 -1103 20 0 20 6 20 1085 l0 1085 135
0 135 0 0 -1085 c0 -958 2 -1085 15 -1085 13 0 15 127 15 1086 l0 1085 313 -3
312 -3 75 -36 c128 -62 206 -149 250 -280 18 -53 21 -81 18 -165 -3 -92 -6
-107 -40 -176 -58 -116 -165 -211 -282 -248 -21 -7 -69 -15 -108 -19 l-70 -6
427 -610 c235 -335 433 -615 440 -621 12 -9 15 -94 17 -483 l3 -473 24 -19
c30 -24 72 -24 102 0 l24 19 5 1068 5 1068 269 -414 c977 -1505 1139 -1750
1164 -1757 35 -8 74 8 89 37 10 20 12 275 10 1226 -2 1166 -3 1203 -21 1223
-22 25 -73 28 -102 7 -19 -14 -19 -40 -24 -1090 l-5 -1075 -703 1079 c-387
593 -710 1084 -718 1091 -24 20 -73 15 -97 -10 l-22 -22 -5 -721 -5 -721 -289
414 c-159 228 -300 428 -313 445 l-23 30 79 32 c298 122 489 388 508 707 13
234 -67 438 -241 610 -101 101 -208 164 -346 206 -73 22 -89 23 -567 27 -430
3 -493 1 -493 -12z"/>
<path d="M831 2026 c-11 -13 38 -87 310 -471 226 -318 329 -455 342 -455 11 0
15 4 11 12 -12 18 -636 912 -644 921 -4 4 -13 1 -19 -7z"/>
</g>
</svg>
