<?xml version="1.0" standalone="no"?>
<!DOCTYPE svg PUBLIC "-//W3C//DTD SVG 20010904//EN"
 "http://www.w3.org/TR/2001/REC-SVG-20010904/DTD/svg10.dtd">
<svg version="1.0" xmlns="http://www.w3.org/2000/svg"
 width="310.000000pt" height="310.000000pt" viewBox="0 0 310.000000 310.000000"
 preserveAspectRatio="xMidYMid meet">
<metadata>
Created by potrace 1.11, written by Peter Selinger 2001-2013
</metadata>
<g transform="translate(0.000000,310.000000) scale(0.100000,-0.100000)"
fill="#000000" stroke="none">
<path d="M735 3061 c-11 -3 -20 -12 -19 -18 1 -7 2 -23 3 -36 1 -23 1 -23 159
-23 171 0 285 -18 402 -61 222 -83 380 -239 443 -438 33 -107 31 -253 -6 -362
-33 -95 -83 -177 -154 -248 -44 -45 -137 -115 -152 -115 -3 0 -94 147 -201
327 l-195 328 -3 -388 c-2 -412 0 -389 -47 -389 -8 0 -18 0 -23 1 -4 0 -7 156
-7 346 l0 345 -42 0 -43 0 0 -349 0 -349 -65 5 c-36 3 -65 1 -66 -4 -5 -57 -3
-73 11 -75 8 0 20 -2 25 -3 6 -2 29 -3 53 -4 l42 -1 0 -710 0 -710 43 0 42 0
2 707 2 708 30 6 c17 4 33 4 36 1 3 -3 5 -324 5 -714 l0 -708 48 0 47 0 0 711
c0 391 2 715 5 719 3 4 19 10 35 13 55 9 129 30 174 49 24 10 45 17 46 16 9
-13 141 -235 144 -243 2 -5 26 -45 53 -87 26 -43 48 -82 48 -88 0 -5 5 -10 10
-10 6 0 10 -4 10 -9 0 -4 155 -268 345 -586 l345 -578 0 1147 0 1146 -48 0
-47 0 0 -970 c0 -533 -3 -966 -6 -962 -3 4 -49 79 -101 167 -52 88 -222 372
-376 632 -155 259 -282 476 -282 481 0 5 23 23 51 41 104 68 212 197 263 314
81 185 73 420 -19 596 -118 224 -335 369 -630 421 -99 17 -348 24 -390 11z
m574 -1333 c11 -18 1 -23 -94 -51 -98 -30 -105 -30 -106 -5 -4 66 -4 365 -1
376 4 10 85 -119 201 -320z"/>
<path d="M1267 1512 c55 -94 628 -1043 645 -1070 10 -15 21 -34 25 -42 3 -8 9
-17 13 -20 4 -3 39 -60 80 -127 l72 -123 85 -46 c46 -25 87 -43 90 -41 5 5
-273 476 -287 487 -4 3 -145 236 -315 518 l-309 512 -64 0 -64 0 29 -48z"/>
</g>
</svg>
