<?xml version="1.0" standalone="no"?>
<!DOCTYPE svg PUBLIC "-//W3C//DTD SVG 20010904//EN"
 "http://www.w3.org/TR/2001/REC-SVG-20010904/DTD/svg10.dtd">
<svg version="1.0" xmlns="http://www.w3.org/2000/svg"
 width="308.000000pt" height="308.000000pt" viewBox="0 0 308.000000 308.000000"
 preserveAspectRatio="xMidYMid meet">
<metadata>
Created by potrace 1.11, written by Peter Selinger 2001-2013
</metadata>
<g transform="translate(0.000000,308.000000) scale(0.100000,-0.100000)"
fill="#000000" stroke="none">
<path d="M755 3072 c-19 -6 -24 -31 -16 -74 0 -4 58 -6 129 -5 70 1 159 -1
197 -5 79 -8 221 -47 293 -80 365 -168 511 -554 335 -891 -42 -80 -169 -216
-239 -254 l-40 -22 -185 311 c-101 171 -189 318 -196 327 -10 13 -12 -64 -13
-366 0 -299 -3 -383 -12 -384 -7 0 -28 -2 -45 -4 l-33 -3 0 344 0 344 -44 0
-45 0 0 -322 c0 -178 0 -332 0 -343 -1 -17 -8 -20 -53 -20 l-52 0 -1 -37 c-2
-41 -4 -40 73 -42 l32 -1 1 -430 c0 -236 0 -562 0 -723 l0 -292 45 0 44 0 0
720 0 720 45 0 45 0 0 -720 0 -720 48 0 47 0 0 726 c0 479 3 728 10 730 5 2
26 5 46 8 20 3 72 17 115 31 88 28 94 29 94 16 0 -5 29 -57 65 -116 36 -59 65
-109 65 -111 0 -3 9 -17 19 -32 10 -15 72 -117 137 -227 64 -110 143 -243 174
-295 52 -86 410 -688 466 -785 l24 -40 0 1153 0 1152 -48 0 -47 0 0 -969 c0
-533 -3 -967 -6 -965 -6 3 -71 108 -105 169 -6 11 -152 256 -324 545 -171 289
-318 537 -325 551 -13 25 -12 27 50 67 140 93 263 264 305 424 25 101 25 265
-1 360 -85 307 -342 513 -714 575 -49 8 -338 12 -360 5z m469 -1204 c87 -144
96 -163 81 -174 -22 -16 -175 -57 -183 -49 -8 8 -10 385 -1 385 3 0 50 -73
103 -162z"/>
<path d="M1299 1478 c21 -35 86 -144 145 -243 59 -99 148 -245 196 -325 49
-80 97 -159 106 -177 9 -18 22 -37 30 -44 8 -6 14 -16 14 -20 0 -5 32 -62 71
-127 80 -130 72 -116 187 -309 l82 -138 78 -40 c42 -22 80 -41 84 -42 4 -2
-36 67 -88 152 -52 86 -94 160 -94 166 0 5 -4 9 -9 9 -5 0 -11 8 -15 17 -3 10
-31 58 -61 107 -30 49 -55 93 -55 97 0 5 -4 9 -10 9 -5 0 -10 4 -10 8 0 5 -49
91 -110 191 -60 100 -110 186 -110 191 0 6 -4 10 -9 10 -5 0 -12 8 -15 18 -6
17 -11 24 -57 97 -14 22 -28 48 -32 57 -3 10 -22 43 -42 73 -19 31 -35 59 -35
64 0 5 -3 11 -7 13 -5 2 -41 58 -82 126 l-73 122 -59 0 -58 0 38 -62z"/>
</g>
</svg>
